<?xml version="1.0" encoding="utf-8"?>
<?xml-stylesheet type="text/xsl" href="rss1.xsl"?>
<rss version="2.0" xmlns:atom="http://www.w3.org/2005/Atom" xmlns:content="http://purl.org/rss/1.0/modules/content/" xmlns:dc="http://purl.org/dc/elements/1.1/" xmlns:media="http://search.yahoo.com/mrss/">
<channel>
 <title>Getty</title>
 <link>http://www.gettyimg.com/</link>
 <atom:link href="http://www.gettyimg.com/" rel="self" type="application/rss+xml" />

 
                <item>
                <title><![CDATA[【Music Videos】Fall Out Boy - Where Is Your Boy (Directors Cut)]]></title>
                <link><![CDATA[https://sharemania.us/threads/fall-out-boy-where-is-your-boy-directors-cut.236871/]]></link>
                <description><![CDATA[<article>
<blockquote class="messageText SelectQuoteContainer ugc baseHtml">
<img src="https://i.postimg.cc/mkKcTPKK/Fall-Out-Boy-Where-Is-Your-Boy-mp4-thumbs.jpg" class="bbCodeImage LbImage" alt="[​IMG]" data-url="https://i.postimg.cc/mkKcTPKK/Fall-Out-Boy-Where-Is-Your-Boy-mp4-thumbs.jpg" style=""><br>
<br>
<b>Info</b><br>
<div class="bbCodeBlock bbCodeQuote">
<aside>
<blockquote class="quoteContainer"><div class="quote">Video: MPEG4 Video (H264) 640x480 30fps 909kbps [V: h264 high L3.1, yuv420p, 640x480, 749 kb/s]<br>
Audio: AAC 44100Hz stereo 128kbps</div><div class="quoteExpand">Click to expand...</div></blockquote>
</aside>
</div>
<div class="bbCodeBlock bbCodeVfcHH HiddenContent">
<div class="attribution type">Hidden Content:</div>
<blockquote>You must either reply or click 'Like' to see the hidden information contained here.</blockquote>
</div>Enjoy
<div class="messageTextEndMarker">&nbsp;</div>
</blockquote>
</article>]]></description>
                <author><![CDATA[music videos]]></author>
                </item>

                
                <item>
                <title><![CDATA[【Albums (lossy)】iTunes Plus - Olivia Rodrigo - GUTS (Deluxe Edition) [iTunes Plus AAC M4A + MP3]]]></title>
                <link><![CDATA[https://sharemania.us/threads/olivia-rodrigo-guts-deluxe-edition-itunes-plus-aac-m4a-mp3.236869/]]></link>
                <description><![CDATA[<article>
<blockquote class="messageText SelectQuoteContainer ugc baseHtml">
<div style="text-align: center"><img src="https://i.imgur.com/XTeKRix.png" class="bbCodeImage LbImage" alt="[​IMG]" data-url="https://i.imgur.com/XTeKRix.png" style="">​</div><br>
<div style="text-align: center"><br>
<b>Album:</b> GUTS (Deluxe Edition)<br>
<b>Artist:</b> Olivia Rodrigo<br>
<b>Genre:</b> Pop • pop rock<br>
<b>Release Date:</b> September 8, 2023<br>
<b>Format:</b> M4A/MP3<br>
​</div><br>
<div style="text-align: center"><b>Tracklist:</b>​</div><br>
<div style="text-align: center"><br>
<b>1.</b> all-american bitch<br>
<b>2.</b> bad idea right?<br>
<b>3.</b> vampire<br>
<b>4.</b> lacy<br>
<b>5.</b> ballad of a homeschooled girl<br>
<b>6.</b> making the bed<br>
<b>7.</b> logical<br>
<b>8.</b> get him back!<br>
<b>9.</b> love is embarrassing<br>
<b>10.</b> the grudge<br>
<b>11.</b> pretty isn’t pretty<br>
<b>12.</b> teenage dream<br>
<b>13.</b> obsessed<br>
<b>14.</b> scared of my guitar<br>
<b>15.</b> stranger<br>
<b>16.</b> girl i've always been<br>
​</div><br>
<span style="color: #6C1315"><span style="font-size: 15px"><div style="text-align: center"><i><b>*Last four songs were hidden in four of GUTS vinyls. These songs are ripped in their best quality so far, and are only available in MP3.</b></i>​</div></span></span><span style="font-size: 15px"><div style="text-align: center">​</div></span><br>
<br>
<div style="text-align: center"><b><span style="text-decoration: underline">Download:</span></b>​</div><br>
<div style="text-align: center">
<div class="bbCodeBlock bbCodeVfcHH HiddenContent">
<div class="attribution type">Hidden Content:</div>
<blockquote>You must either reply or click 'Like' to see the hidden information contained here.</blockquote>
</div></div>
<div class="messageTextEndMarker">&nbsp;</div>
</blockquote>
</article>]]></description>
                <author><![CDATA[bugnoirs]]></author>
                </item>

                
                <item>
                <title><![CDATA[【Requests】[REQ VID] - The L Word - 1080p (Season 1 to 6)]]></title>
                <link><![CDATA[https://sharemania.us/threads/the-l-word-1080p-season-1-to-6.236870/]]></link>
                <description><![CDATA[<article>
<blockquote class="messageText SelectQuoteContainer ugc baseHtml">
Could someone please upload The L Word six seasons in 1080p? The only post I could find links were broken so &gt;:[
<div class="messageTextEndMarker">&nbsp;</div>
</blockquote>
</article>]]></description>
                <author><![CDATA[bugnoirs]]></author>
                </item>

                
                <item>
                <title><![CDATA[【Cinema Center】SERIES - Firebuds - Season 1 - 1080p Disney+ WEB-DL DDP5.1 H.264-LAZY]]></title>
                <link><![CDATA[https://sharemania.us/threads/firebuds-season-1-1080p-disney-web-dl-ddp5-1-h-264-lazy.236872/]]></link>
                <description><![CDATA[<article>
<blockquote class="messageText SelectQuoteContainer ugc baseHtml">
Firebuds:<img src="http:////cdn2.broadcasthe.net/tvdb/banners/v4/series/412226/banners/632daad13f3fb.jpg" class="bbCodeImage LbImage" alt="[​IMG]" data-url="http:////cdn2.broadcasthe.net/tvdb/banners/v4/series/412226/banners/632daad13f3fb.jpg" style=""> <br>
<br>
<div class="bbCodeBlock bbCodeQuote">
<aside>
<blockquote class="quoteContainer"><div class="quote"><i><b>Synopsis:</b></i><br>
Set in a fantastical world where talking vehicles live, work and play with the humans who drive them, this animated comedy-adventure series follows a boy and his firetruck as they team up with their first responder friends to help others in their community with problems, both big and small. Whether rescuing a young car that’s stuck in a tree, tracking down lost Dalmatian puppies or helping their neighbors stock up on emergency supplies during a blackout, the Firebuds highlight the importance of teamwork and helping your fellow citizens.</div><div class="quoteExpand">Click to expand...</div></blockquote>
</aside>
</div>
<div class="ToggleTriggerAnchor bbCodeSpoilerContainer">
<button type="button" class="button bbCodeSpoilerButton ToggleTrigger Tooltip JsOnly" data-target="> .SpoilerTarget"><span>Spoiler: <span class="SpoilerTitle">MediaInfo</span></span></button>
<div class="SpoilerTarget bbCodeSpoilerText">General<br>
Unique ID : 186757709416196977389947389566387378990 (0x8C8039FB50222907A1FB95CC08025B2E)<br>
Complete name : Firebuds.S01E01E02.Car.in.a.Tree.-.Dalmatian.Day.1080p.DSNP.WEB-DL.DDP5.1.H.264-LAZY.mkv<br>
Format : Matroska<br>
Format version : Version 4<br>
File size : 1.22 GiB<br>
Duration : 23 min 33 s<br>
Overall bit rate mode : Variable<br>
Overall bit rate : 7 423 kb/s<br>
Frame rate : 23.976 FPS<br>
Encoded date : 2024-02-01 16:59:10 UTC<br>
Writing application : mkvmerge v82.0 ('I'm The President') 64-bit<br>
Writing library : libebml v1.4.5 + libmatroska v1.7.1<br>
<br>
Video<br>
ID : 1<br>
Format : AVC<br>
Format/Info : Advanced Video Codec<br>
Format profile : High@L4<br>
Format settings : CABAC / 4 Ref Frames<br>
Format settings, CABAC : Yes<br>
Format settings, Reference frames : 4 frames<br>
Codec ID : V_MPEG4/ISO/AVC<br>
Duration : 23 min 33 s<br>
Bit rate mode : Variable<br>
Bit rate : 7 162 kb/s<br>
Maximum bit rate : 12.7 Mb/s<br>
Width : 1 920 pixels<br>
Height : 1 080 pixels<br>
Display aspect ratio : 16:9<br>
Frame rate mode : Constant<br>
Frame rate : 23.976 (24000/1001) FPS<br>
Color space : YUV<br>
Chroma subsampling : 4:2:0<br>
Bit depth : 8 bits<br>
Scan type : Progressive<br>
Bits/(Pixel*Frame) : 0.144<br>
Stream size : 1.18 GiB (96%)<br>
Default : Yes<br>
Forced : No<br>
Color range : Limited<br>
Color primaries : BT.709<br>
Transfer characteristics : BT.709<br>
Matrix coefficients : BT.709<br>
<br>
Audio<br>
ID : 2<br>
Format : E-AC-3<br>
Format/Info : Enhanced AC-3<br>
Commercial name : Dolby Digital Plus<br>
Codec ID : A_EAC3<br>
Duration : 23 min 33 s<br>
Bit rate mode : Constant<br>
Bit rate : 256 kb/s<br>
Channel(s) : 6 channels<br>
Channel layout : L R C LFE Ls Rs<br>
Sampling rate : 48.0 kHz<br>
Frame rate : 31.250 FPS (1536 SPF)<br>
Compression mode : Lossy<br>
Stream size : 43.1 MiB (3%)<br>
Language : English<br>
Service kind : Complete Main<br>
Default : Yes<br>
Forced : No<br>
<br>
Text #1<br>
ID : 3<br>
Format : UTF-8<br>
Codec ID : S_TEXT/UTF8<br>
Codec ID/Info : UTF-8 Plain Text<br>
Duration : 23 min 3 s<br>
Bit rate : 95 b/s<br>
Frame rate : 0.382 FPS<br>
Count of elements : 529<br>
Stream size : 16.1 KiB (0%)<br>
Title : SDH<br>
Language : English<br>
Default : No<br>
Forced : No<br>
<br>
Text #2<br>
ID : 4<br>
Format : UTF-8<br>
Codec ID : S_TEXT/UTF8<br>
Codec ID/Info : UTF-8 Plain Text<br>
Duration : 21 min 59 s<br>
Bit rate : 54 b/s<br>
Frame rate : 0.183 FPS<br>
Count of elements : 242<br>
Stream size : 8.70 KiB (0%)<br>
Language : Danish<br>
Default : No<br>
Forced : No<br>
<br>
Text #3<br>
ID : 5<br>
Format : UTF-8<br>
Codec ID : S_TEXT/UTF8<br>
Codec ID/Info : UTF-8 Plain Text<br>
Duration : 21 min 59 s<br>
Bit rate : 65 b/s<br>
Frame rate : 0.220 FPS<br>
Count of elements : 290<br>
Stream size : 10.6 KiB (0%)<br>
Language : German<br>
Default : No<br>
Forced : No<br>
<br>
Text #4<br>
ID : 6<br>
Format : UTF-8<br>
Codec ID : S_TEXT/UTF8<br>
Codec ID/Info : UTF-8 Plain Text<br>
Duration : 22 min 53 s<br>
Bit rate : 76 b/s<br>
Frame rate : 0.345 FPS<br>
Count of elements : 474<br>
Stream size : 12.8 KiB (0%)<br>
Title : Latin American<br>
Language : Spanish<br>
Default : No<br>
Forced : No<br>
<br>
Text #5<br>
ID : 7<br>
Format : UTF-8<br>
Codec ID : S_TEXT/UTF8<br>
Codec ID/Info : UTF-8 Plain Text<br>
Duration : 22 min 53 s<br>
Bit rate : 76 b/s<br>
Frame rate : 0.346 FPS<br>
Count of elements : 475<br>
Stream size : 12.8 KiB (0%)<br>
Title : European<br>
Language : Spanish<br>
Default : No<br>
Forced : No<br>
<br>
Text #6<br>
ID : 8<br>
Format : UTF-8<br>
Codec ID : S_TEXT/UTF8<br>
Codec ID/Info : UTF-8 Plain Text<br>
Duration : 22 min 58 s<br>
Bit rate : 80 b/s<br>
Frame rate : 0.265 FPS<br>
Count of elements : 365<br>
Stream size : 13.5 KiB (0%)<br>
Title : European (SDH)<br>
Language : Spanish<br>
Default : No<br>
Forced : No<br>
<br>
Text #7<br>
ID : 9<br>
Format : UTF-8<br>
Codec ID : S_TEXT/UTF8<br>
Codec ID/Info : UTF-8 Plain Text<br>
Duration : 23 min 5 s<br>
Bit rate : 61 b/s<br>
Frame rate : 0.211 FPS<br>
Count of elements : 293<br>
Stream size : 10.4 KiB (0%)<br>
Language : Finnish<br>
Default : No<br>
Forced : No<br>
<br>
Text #8<br>
ID : 10<br>
Format : UTF-8<br>
Codec ID : S_TEXT/UTF8<br>
Codec ID/Info : UTF-8 Plain Text<br>
Duration : 23 min 1 s<br>
Bit rate : 81 b/s<br>
Frame rate : 0.301 FPS<br>
Count of elements : 416<br>
Stream size : 13.8 KiB (0%)<br>
Language : French<br>
Default : No<br>
Forced : No<br>
<br>
Text #9<br>
ID : 11<br>
Format : UTF-8<br>
Codec ID : S_TEXT/UTF8<br>
Codec ID/Info : UTF-8 Plain Text<br>
Duration : 23 min 5 s<br>
Bit rate : 56 b/s<br>
Frame rate : 0.184 FPS<br>
Count of elements : 255<br>
Stream size : 9.51 KiB (0%)<br>
Language : Italian<br>
Default : No<br>
Forced : No<br>
<br>
Text #10<br>
ID : 12<br>
Format : UTF-8<br>
Codec ID : S_TEXT/UTF8<br>
Codec ID/Info : UTF-8 Plain Text<br>
Duration : 22 min 54 s<br>
Bit rate : 75 b/s<br>
Frame rate : 0.323 FPS<br>
Count of elements : 444<br>
Stream size : 12.7 KiB (0%)<br>
Language : Dutch<br>
Default : No<br>
Forced : No<br>
<br>
Text #11<br>
ID : 13<br>
Format : UTF-8<br>
Codec ID : S_TEXT/UTF8<br>
Codec ID/Info : UTF-8 Plain Text<br>
Duration : 23 min 26 s<br>
Bit rate : 73 b/s<br>
Frame rate : 0.316 FPS<br>
Count of elements : 445<br>
Stream size : 12.5 KiB (0%)<br>
Language : Norwegian<br>
Default : No<br>
Forced : No<br>
<br>
Text #12<br>
ID : 14<br>
Format : UTF-8<br>
Codec ID : S_TEXT/UTF8<br>
Codec ID/Info : UTF-8 Plain Text<br>
Duration : 21 min 59 s<br>
Bit rate : 63 b/s<br>
Frame rate : 0.220 FPS<br>
Count of elements : 290<br>
Stream size : 10.2 KiB (0%)<br>
Language : Polish<br>
Default : No<br>
Forced : No<br>
<br>
Text #13<br>
ID : 15<br>
Format : UTF-8<br>
Codec ID : S_TEXT/UTF8<br>
Codec ID/Info : UTF-8 Plain Text<br>
Duration : 22 min 53 s<br>
Bit rate : 78 b/s<br>
Frame rate : 0.330 FPS<br>
Count of elements : 453<br>
Stream size : 13.1 KiB (0%)<br>
Title : Brazilian<br>
Language : Portuguese<br>
Default : No<br>
Forced : No<br>
<br>
Text #14<br>
ID : 16<br>
Format : UTF-8<br>
Codec ID : S_TEXT/UTF8<br>
Codec ID/Info : UTF-8 Plain Text<br>
Duration : 21 min 59 s<br>
Bit rate : 67 b/s<br>
Frame rate : 0.220 FPS<br>
Count of elements : 290<br>
Stream size : 10.9 KiB (0%)<br>
Title : European<br>
Language : Portuguese<br>
Default : No<br>
Forced : No<br>
<br>
Text #15<br>
ID : 17<br>
Format : UTF-8<br>
Codec ID : S_TEXT/UTF8<br>
Codec ID/Info : UTF-8 Plain Text<br>
Duration : 21 min 56 s<br>
Bit rate : 70 b/s<br>
Frame rate : 0.222 FPS<br>
Count of elements : 292<br>
Stream size : 11.4 KiB (0%)<br>
Language : Romanian<br>
Default : No<br>
Forced : No<br>
<br>
Text #16<br>
ID : 18<br>
Format : UTF-8<br>
Codec ID : S_TEXT/UTF8<br>
Codec ID/Info : UTF-8 Plain Text<br>
Duration : 23 min 6 s<br>
Bit rate : 64 b/s<br>
Frame rate : 0.209 FPS<br>
Count of elements : 290<br>
Stream size : 11.0 KiB (0%)<br>
Language : Swedish<br>
Default : No<br>
Forced : No<br>
<br>
Text #17<br>
ID : 19<br>
Format : UTF-8<br>
Codec ID : S_TEXT/UTF8<br>
Codec ID/Info : UTF-8 Plain Text<br>
Duration : 21 min 59 s<br>
Bit rate : 68 b/s<br>
Frame rate : 0.220 FPS<br>
Count of elements : 290<br>
Stream size : 11.0 KiB (0%)<br>
Language : Turkish<br>
Default : No<br>
Forced : No<br>
<br>
Text #18<br>
ID : 20<br>
Format : UTF-8<br>
Codec ID : S_TEXT/UTF8<br>
Codec ID/Info : UTF-8 Plain Text<br>
Duration : 23 min 22 s<br>
Bit rate : 66 b/s<br>
Frame rate : 0.309 FPS<br>
Count of elements : 434<br>
Stream size : 11.4 KiB (0%)<br>
Title : Traditional, Hong Kong<br>
Language : Chinese<br>
Default : No<br>
Forced : No<br>
<br>
Text #19<br>
ID : 21<br>
Format : UTF-8<br>
Codec ID : S_TEXT/UTF8<br>
Codec ID/Info : UTF-8 Plain Text<br>
Duration : 23 min 22 s<br>
Bit rate : 69 b/s<br>
Frame rate : 0.309 FPS<br>
Count of elements : 434<br>
Stream size : 11.9 KiB (0%)<br>
Title : Simplified<br>
Language : Chinese<br>
Default : No<br>
Forced : No<br>
<br>
Text #20<br>
ID : 22<br>
Format : UTF-8<br>
Codec ID : S_TEXT/UTF8<br>
Codec ID/Info : UTF-8 Plain Text<br>
Duration : 23 min 22 s<br>
Bit rate : 66 b/s<br>
Frame rate : 0.309 FPS<br>
Count of elements : 434<br>
Stream size : 11.5 KiB (0%)<br>
Title : Traditional<br>
Language : Chinese<br>
Default : No<br>
Forced : No<br>
<br>
Menu<br>
00:00:01.001 : en:Intro<br>
00:01:01.061 : en:Scene 1<br>
00:12:01.930 : en:Scene 2<br>
00:23:02.382 : en:Credits</div>
</div><br>
Screenshots:<br>
<img src="https://i.imgur.com/XhrKB3W.jpeg" class="bbCodeImage LbImage" alt="[​IMG]" data-url="https://i.imgur.com/XhrKB3W.jpeg" style=""> <br>
<br>
<div class="bbCodeBlock bbCodeVfcHH HiddenContent">
<div class="attribution type">Hidden Content:</div>
<blockquote>You must either reply or click 'Like' to see the hidden information contained here.</blockquote>
</div>
<div class="messageTextEndMarker">&nbsp;</div>
</blockquote>
</article>]]></description>
                <author><![CDATA[LazyRips]]></author>
                </item>

                </channel></rss>